# This file uses centimeters as units for non-parametric coordinates.

mtllib manesilla2.mtl
g default
v 0.024053 0.217455 -0.002147
v 0.024053 0.217455 -0.002147
v -0.026333 0.217455 -0.002147
v -0.026333 0.217455 -0.002147
v 0.013119 0.036533 -0.002147
v 0.013119 0.036533 -0.002147
v -0.015399 0.036533 -0.002147
v -0.015399 0.036533 -0.002147
v -0.001140 0.254680 -0.001755
v 0.036719 0.161525 -0.000377
v -0.038999 0.161525 -0.000377
v -0.001140 -0.000691 -0.001755
v -0.001140 0.186378 0.003807
v -0.001140 0.254680 -0.002147
v 0.036719 0.161525 -0.004234
v -0.038999 0.161525 -0.004234
v -0.001140 -0.000691 -0.002147
v -0.001140 0.186378 -0.004234
vt 0.612135 0.670221
vt 0.620668 0.691911
vt 0.614670 0.697689
vt 0.608285 0.664018
vt 0.606973 0.671200
vt 0.608285 0.664018
vt 0.614670 0.697689
vt 0.606973 0.694508
vt 0.617008 0.710018
vt 0.614670 0.697689
vt 0.620668 0.691911
vt 0.620334 0.702461
vt 0.606973 0.694508
vt 0.614670 0.697689
vt 0.617008 0.710018
vt 0.611146 0.704204
vn 0.000000 0.000000 0.000000
vn 0.828082 0.560607 0.000000
vn 0.828082 0.560607 0.000000
vn 0.000000 0.000000 0.000000
vn 0.036717 0.037293 -0.998630
vn 0.036717 0.037293 -0.998630
vn 0.036717 0.037293 -0.998630
vn 0.036717 0.037293 -0.998630
vn 0.975304 0.220865 0.000000
vn 0.975304 0.220865 0.000000
vn 0.975304 0.220865 0.000000
vn 0.975304 0.220865 0.000000
vn -0.828159 0.560493 0.000000
vn -0.828159 0.560493 0.000000
vn -0.828159 0.560493 0.000000
vn -0.828159 0.560493 0.000000
vn -0.036717 0.037293 -0.998630
vn -0.036717 0.037293 -0.998630
vn -0.036717 0.037293 -0.998630
vn -0.036717 0.037293 -0.998630
vn -0.975304 0.220865 0.000000
vn -0.975304 0.220865 0.000000
vn -0.975304 0.220865 0.000000
vn -0.975304 0.220865 0.000000
vn 0.982638 -0.185535 0.000000
vn 0.982638 -0.185535 0.000000
vn 0.982638 -0.185535 0.000000
vn 0.982638 -0.185535 0.000000
vn 0.094601 -0.030535 0.995047
vn 0.094601 -0.030535 0.995047
vn 0.094601 -0.030535 0.995047
vn 0.094601 -0.030535 0.995047
vn 0.933830 -0.357718 0.000000
vn 0.933830 -0.357718 0.000000
vn 0.933830 -0.357718 0.000000
vn 0.933830 -0.357718 0.000000
vn -0.982638 -0.185535 0.000000
vn -0.982638 -0.185535 0.000000
vn -0.982638 -0.185535 0.000000
vn -0.982638 -0.185535 0.000000
vn -0.094601 -0.030535 0.995047
vn -0.094601 -0.030535 0.995047
vn -0.094601 -0.030535 0.995047
vn -0.094601 -0.030535 0.995047
vn -0.933830 -0.357718 0.000000
vn -0.933830 -0.357718 0.000000
vn -0.933830 -0.357718 0.000000
vn -0.933830 -0.357718 0.000000
vn 0.143367 0.072871 0.986983
vn 0.143367 0.072871 0.986983
vn 0.143367 0.072871 0.986983
vn 0.143367 0.072871 0.986983
vn -0.143367 0.072871 0.986983
vn -0.143367 0.072871 0.986983
vn -0.143367 0.072871 0.986983
vn -0.143367 0.072871 0.986983
vn -0.003232 -0.013618 -0.999902
vn -0.003232 -0.013618 -0.999902
vn -0.003232 -0.013618 -0.999902
vn -0.003232 -0.013618 -0.999902
vn 0.003232 -0.013618 -0.999902
vn 0.003232 -0.013618 -0.999902
vn 0.003232 -0.013618 -0.999902
vn 0.003232 -0.013618 -0.999902
s off
g manesilla2:hourhand_clocktexture
usemtl manesilla2:lambert3SG
f 1/1/1 14/2/2 9/3/3 2/4/4
f 1//5 15//6 18//7 14//8
f 2//9 10//10 15//11 1//12
f 3/5/13 9/6/14 14/7/15 4/8/16
f 4//17 14//18 18//19 16//20
f 4/9/21 16/10/22 11/11/23 3/12/24
f 5/13/25 15/14/26 10/15/27 6/16/28
f 6//29 10//30 13//31 12//32
f 6//33 12//34 17//35 5//36
f 7//37 11//38 16//39 8//40
f 7//41 12//42 13//43 11//44
f 8//45 17//46 12//47 7//48
f 9//49 13//50 10//51 2//52
f 11//53 13//54 9//55 3//56
f 16//57 18//58 17//59 8//60
f 17//61 18//62 15//63 5//64
