# This file uses centimeters as units for non-parametric coordinates.

mtllib pendulo.mtl
g default
v 0.382887 -3.044636 0.037191
v 0.353723 -3.191256 0.037191
v 0.270669 -3.315554 0.037191
v 0.146371 -3.398608 0.037191
v -0.000249 -3.427772 0.037191
v -0.146869 -3.398608 0.037191
v -0.271167 -3.315554 0.037191
v -0.354220 -3.191256 0.037191
v -0.383385 -3.044636 0.037191
v -0.354220 -2.898017 0.037191
v -0.271167 -2.773717 0.037191
v -0.146869 -2.690665 0.037191
v -0.000249 -2.661500 0.037191
v 0.146371 -2.690665 0.037191
v 0.270669 -2.773717 0.037191
v 0.353723 -2.898017 0.037191
v 0.382887 -3.044636 -0.041937
v 0.353723 -3.191256 -0.041937
v 0.270669 -3.315554 -0.041937
v 0.146371 -3.398608 -0.041937
v -0.000249 -3.427772 -0.041937
v -0.146869 -3.398608 -0.041937
v -0.271167 -3.315554 -0.041937
v -0.354220 -3.191256 -0.041937
v -0.383385 -3.044636 -0.041937
v -0.354220 -2.898017 -0.041937
v -0.271167 -2.773717 -0.041937
v -0.146869 -2.690665 -0.041937
v -0.000249 -2.661500 -0.041937
v 0.146371 -2.690665 -0.041937
v 0.270669 -2.773717 -0.041937
v 0.353723 -2.898017 -0.041937
v -0.023852 -2.757166 0.018078
v -0.023852 0.002818 0.018078
v 0.023769 0.002818 0.018078
v 0.023769 -2.757166 0.018078
v -0.023852 -2.757166 -0.029543
v -0.023852 0.002818 -0.029543
v 0.023769 0.002818 -0.029543
v 0.023769 -2.757166 -0.029543
v -0.312694 -2.835867 0.037191
v 0.312196 -3.253405 0.037191
v -0.000249 -3.044636 0.092046
vt 0.331392 0.937208
vt 0.332460 0.930574
vt 0.337691 0.937234
vt 0.336333 0.937761
vt 0.257037 0.989497
vt 0.286720 0.945084
vt 0.276292 0.997473
vt 0.320306 0.936544
vt 0.321068 0.925789
vt 0.297141 0.997473
vt 0.286717 0.997495
vt 0.316395 0.989497
vt 0.285673 0.937132
vt 0.285686 0.922015
vt 0.304575 0.922727
vt 0.304225 0.937512
vt 0.331133 0.974761
vt 0.267825 0.936884
vt 0.267491 0.923205
vt 0.339110 0.955508
vt 0.252760 0.936828
vt 0.252076 0.926277
vt 0.339113 0.934666
vt 0.242462 0.936998
vt 0.241434 0.931197
vt 0.331142 0.915408
vt 0.238845 0.937388
vt 0.237486 0.937915
vt 0.316403 0.900670
vt 0.243786 0.937941
vt 0.242718 0.944575
vt 0.297148 0.892694
vt 0.254872 0.938604
vt 0.254109 0.949360
vt 0.276299 0.892694
vt 0.286723 0.892673
vt 0.257044 0.900670
vt 0.289504 0.938017
vt 0.289492 0.953134
vt 0.270603 0.952422
vt 0.270953 0.937637
vt 0.242307 0.915406
vt 0.307353 0.938265
vt 0.307687 0.951944
vt 0.234330 0.934660
vt 0.322417 0.938321
vt 0.323102 0.948872
vt 0.234326 0.955502
vt 0.332715 0.938150
vt 0.333744 0.943951
vt 0.242298 0.974760
vt 0.299198 0.892202
vt 0.318353 0.900137
vt 0.333014 0.914798
vt 0.340949 0.933953
vt 0.340949 0.954687
vt 0.333014 0.973842
vt 0.318353 0.988503
vt 0.299198 0.996437
vt 0.278465 0.996437
vt 0.259309 0.988503
vt 0.244648 0.973842
vt 0.236714 0.954687
vt 0.236714 0.933953
vt 0.244648 0.914798
vt 0.259309 0.900137
vt 0.278465 0.892202
vt 0.239304 0.939807
vt 0.239304 0.931785
vt 0.337469 0.931785
vt 0.337469 0.939807
vt 0.237611 0.947828
vt 0.239304 0.947828
vt 0.239304 0.955850
vt 0.237611 0.955850
vt 0.337469 0.947828
vt 0.337469 0.923764
vt 0.339163 0.923764
vt 0.339163 0.931785
vt 0.239304 0.923764
vt 0.337469 0.955850
vt 0.262499 0.937851
vt 0.312679 0.937298
vn 0.980786 0.195088 0.000000
vn 0.980786 0.195088 0.000000
vn 0.980786 0.195088 0.000000
vn 0.980786 0.195088 0.000000
vn 0.141673 -0.028181 0.989512
vn 0.141673 -0.028181 0.989512
vn 0.141673 -0.028181 0.989512
vn 0.980785 -0.195090 0.000000
vn 0.980785 -0.195090 0.000000
vn 0.980785 -0.195090 0.000000
vn 0.980785 -0.195090 0.000000
vn 0.120105 -0.080251 0.989512
vn 0.120105 -0.080251 0.989512
vn 0.120105 -0.080251 0.989512
vn 0.120105 -0.080251 0.989512
vn 0.080251 -0.120105 0.989512
vn 0.080251 -0.120105 0.989512
vn 0.080251 -0.120105 0.989512
vn 0.555570 -0.831470 0.000000
vn 0.555570 -0.831470 0.000000
vn 0.555570 -0.831470 0.000000
vn 0.555570 -0.831470 0.000000
vn 0.028181 -0.141673 0.989512
vn 0.028181 -0.141673 0.989512
vn 0.028181 -0.141673 0.989512
vn 0.195090 -0.980785 0.000000
vn 0.195090 -0.980785 0.000000
vn 0.195090 -0.980785 0.000000
vn 0.195090 -0.980785 0.000000
vn -0.028181 -0.141673 0.989512
vn -0.028181 -0.141673 0.989512
vn -0.028181 -0.141673 0.989512
vn -0.195090 -0.980785 0.000000
vn -0.195090 -0.980785 0.000000
vn -0.195090 -0.980785 0.000000
vn -0.195090 -0.980785 0.000000
vn -0.080251 -0.120105 0.989512
vn -0.080251 -0.120105 0.989512
vn -0.080251 -0.120105 0.989512
vn -0.555570 -0.831470 0.000000
vn -0.555570 -0.831470 0.000000
vn -0.555570 -0.831470 0.000000
vn -0.555570 -0.831470 0.000000
vn -0.120105 -0.080251 0.989512
vn -0.120105 -0.080251 0.989512
vn -0.120105 -0.080251 0.989512
vn -0.831470 -0.555570 0.000000
vn -0.831470 -0.555570 0.000000
vn -0.831470 -0.555570 0.000000
vn -0.831470 -0.555570 0.000000
vn -0.141673 -0.028181 0.989512
vn -0.141673 -0.028181 0.989512
vn -0.141673 -0.028181 0.989512
vn -0.980785 -0.195090 0.000000
vn -0.980785 -0.195090 0.000000
vn -0.980785 -0.195090 0.000000
vn -0.980785 -0.195090 0.000000
vn -0.141673 0.028181 0.989512
vn -0.141673 0.028181 0.989512
vn -0.141673 0.028181 0.989512
vn -0.980785 0.195090 -0.000000
vn -0.980785 0.195090 -0.000000
vn -0.980785 0.195090 -0.000000
vn -0.980785 0.195090 -0.000000
vn -0.120105 0.080251 0.989512
vn -0.120105 0.080251 0.989512
vn -0.120105 0.080251 0.989512
vn -0.120105 0.080251 0.989512
vn -0.080251 0.120105 0.989512
vn -0.080251 0.120105 0.989512
vn -0.080251 0.120105 0.989512
vn -0.555570 0.831470 0.000000
vn -0.555570 0.831470 0.000000
vn -0.555570 0.831470 0.000000
vn -0.555570 0.831470 0.000000
vn -0.028181 0.141673 0.989512
vn -0.028181 0.141673 0.989512
vn -0.028181 0.141673 0.989512
vn -0.195090 0.980785 0.000000
vn -0.195090 0.980785 0.000000
vn -0.195090 0.980785 0.000000
vn -0.195090 0.980785 0.000000
vn 0.028181 0.141673 0.989512
vn 0.028181 0.141673 0.989512
vn 0.028181 0.141673 0.989512
vn 0.195090 0.980785 0.000000
vn 0.195090 0.980785 0.000000
vn 0.195090 0.980785 0.000000
vn 0.195090 0.980785 0.000000
vn 0.080251 0.120105 0.989512
vn 0.080251 0.120105 0.989512
vn 0.080251 0.120105 0.989512
vn 0.555570 0.831470 0.000000
vn 0.555570 0.831470 0.000000
vn 0.555570 0.831470 0.000000
vn 0.555570 0.831470 0.000000
vn 0.120105 0.080251 0.989512
vn 0.120105 0.080251 0.989512
vn 0.120105 0.080251 0.989512
vn 0.831470 0.555570 0.000000
vn 0.831470 0.555570 0.000000
vn 0.831470 0.555570 0.000000
vn 0.831470 0.555570 0.000000
vn 0.141673 0.028181 0.989512
vn 0.141673 0.028181 0.989512
vn 0.141673 0.028181 0.989512
vn 0.000000 0.000000 -1.000000
vn 0.000000 0.000000 -1.000000
vn 0.000000 0.000000 -1.000000
vn 0.000000 0.000000 -1.000000
vn 0.000000 0.000000 -1.000000
vn 0.000000 0.000000 -1.000000
vn 0.000000 0.000000 -1.000000
vn 0.000000 0.000000 -1.000000
vn 0.000000 0.000000 -1.000000
vn 0.000000 0.000000 -1.000000
vn 0.000000 0.000000 -1.000000
vn 0.000000 0.000000 -1.000000
vn 0.000000 0.000000 -1.000000
vn 0.000000 0.000000 -1.000000
vn 0.000000 0.000000 -1.000000
vn 0.000000 0.000000 -1.000000
vn 0.000000 0.000000 1.000000
vn 0.000000 0.000000 1.000000
vn 0.000000 0.000000 1.000000
vn 0.000000 0.000000 1.000000
vn 0.000000 -1.000000 0.000000
vn 0.000000 -1.000000 0.000000
vn 0.000000 -1.000000 0.000000
vn 0.000000 -1.000000 0.000000
vn -1.000000 0.000000 0.000000
vn -1.000000 0.000000 0.000000
vn -1.000000 0.000000 0.000000
vn -1.000000 0.000000 0.000000
vn 0.000000 1.000000 0.000000
vn 0.000000 1.000000 0.000000
vn 0.000000 1.000000 0.000000
vn 0.000000 1.000000 0.000000
vn 1.000000 0.000000 0.000000
vn 1.000000 0.000000 0.000000
vn 1.000000 0.000000 0.000000
vn 1.000000 0.000000 0.000000
vn 0.000000 0.000000 -1.000000
vn 0.000000 0.000000 -1.000000
vn 0.000000 0.000000 -1.000000
vn 0.000000 0.000000 -1.000000
vn -0.831470 0.555570 -0.000000
vn -0.831470 0.555570 -0.000000
vn -0.831470 0.555570 -0.000000
vn -0.831470 0.555570 -0.000000
vn -0.831470 0.555570 -0.000000
vn 0.831470 -0.555570 0.000000
vn 0.831470 -0.555570 0.000000
vn 0.831470 -0.555570 0.000000
vn 0.831470 -0.555570 0.000000
vn 0.831470 -0.555570 0.000000
s off
g pendulo:pendulum_clocktexture
usemtl pendulo:lambert4SG
f 1/1/1 17/2/2 32/3/3 16/4/4
f 1/5/5 43/6/6 2/7/7
f 2/8/8 18/9/9 17/2/10 1/1/11
f 2/7/12 43/6/13 3/10/14 42/11/15
f 3/10/16 43/6/17 4/12/18
f 4/13/19 20/14/20 19/15/21 3/16/22
f 4/12/23 43/6/24 5/17/25
f 5/18/26 21/19/27 20/14/28 4/13/29
f 5/17/30 43/6/31 6/20/32
f 6/21/33 22/22/34 21/19/35 5/18/36
f 6/20/37 43/6/38 7/23/39
f 7/24/40 23/25/41 22/22/42 6/21/43
f 7/23/44 43/6/45 8/26/46
f 8/27/47 24/28/48 23/25/49 7/24/50
f 8/26/51 43/6/52 9/29/53
f 9/30/54 25/31/55 24/28/56 8/27/57
f 9/29/58 43/6/59 10/32/60
f 10/33/61 26/34/62 25/31/63 9/30/64
f 10/32/65 43/6/66 11/35/67 41/36/68
f 11/35/69 43/6/70 12/37/71
f 12/38/72 28/39/73 27/40/74 11/41/75
f 12/37/76 43/6/77 13/42/78
f 13/43/79 29/44/80 28/39/81 12/38/82
f 13/42/83 43/6/84 14/45/85
f 14/46/86 30/47/87 29/44/88 13/43/89
f 14/45/90 43/6/91 15/48/92
f 15/49/93 31/50/94 30/47/95 14/46/96
f 15/48/97 43/6/98 16/51/99
f 16/4/100 32/3/101 31/50/102 15/49/103
f 16/51/104 43/6/105 1/5/106
f 18/52/107 19/53/108 20/54/109 21/55/110 22/56/111 23/57/112 24/58/113 25/59/114 26/60/115 27/61/116 28/62/117 29/63/118 30/64/119 31/65/120 32/66/121 17/67/122
f 33/68/123 36/69/124 35/70/125 34/71/126
f 33/72/127 37/73/128 40/74/129 36/75/130
f 34/71/131 38/76/132 37/73/133 33/68/134
f 35/70/135 39/77/136 38/78/137 34/79/138
f 36/69/139 40/80/140 39/77/141 35/70/142
f 38/76/143 39/81/144 40/74/145 37/73/146
f 41/82/147 11/41/148 27/40/149 26/34/150 10/33/151
f 42/83/152 3/16/153 19/15/154 18/9/155 2/8/156
