# This file uses centimeters as units for non-parametric coordinates.

mtllib manesilla1.mtl
g default
v 0.025132 0.368932 -0.001553
v 0.025132 0.368932 -0.001553
v -0.025254 0.368932 -0.001553
v -0.025254 0.368932 -0.001553
v 0.014198 0.048000 -0.001553
v 0.014198 0.048000 -0.001553
v -0.014320 0.048000 -0.001553
v -0.014320 0.048000 -0.001553
v -0.000061 0.406156 -0.001161
v 0.037798 0.313000 0.000217
v -0.037920 0.313000 0.000217
v -0.000061 0.010776 -0.001161
v -0.000061 0.337855 0.004401
v -0.000061 0.406156 -0.001553
v 0.037798 0.313000 -0.003640
v -0.037920 0.313000 -0.003640
v -0.000061 0.010776 -0.001553
v -0.000061 0.337855 -0.003640
vt 0.615639 0.703156
vt 0.609237 0.706842
vt 0.609236 0.706846
vt 0.615639 0.703156
vt 0.609572 0.724827
vt 0.612746 0.710389
vt 0.603175 0.716766
vt 0.603171 0.734478
vt 0.609572 0.724827
vt 0.612759 0.710440
vt 0.596771 0.724818
vt 0.603170 0.734488
vt 0.596771 0.724818
vt 0.596771 0.724818
vt 0.593608 0.710380
vt 0.596771 0.724818
vt 0.593578 0.710431
vt 0.606712 0.643673
vt 0.606712 0.643673
vt 0.612779 0.672155
vt 0.618825 0.697660
vt 0.609224 0.700129
vt 0.609236 0.668646
vt 0.606712 0.643673
vt 0.603170 0.634488
vt 0.603171 0.634500
vt 0.599630 0.643679
vt 0.599630 0.643679
vt 0.605696 0.672157
vt 0.599645 0.697656
vt 0.599630 0.643679
vt 0.615639 0.703156
vt 0.602837 0.703152
vt 0.599630 0.643679
vn 0.000000 0.000000 0.000000
vn 0.828082 0.560607 0.000000
vn 0.828082 0.560607 0.000000
vn 0.000000 0.000000 0.000000
vn 0.036717 0.037293 -0.998630
vn 0.036717 0.037293 -0.998630
vn 0.036717 0.037293 -0.998630
vn 0.036717 0.037293 -0.998630
vn 0.975304 0.220865 0.000000
vn 0.975304 0.220865 0.000000
vn 0.975304 0.220865 0.000000
vn 0.975304 0.220865 0.000000
vn -0.828159 0.560493 0.000000
vn -0.828159 0.560493 0.000000
vn -0.828159 0.560493 0.000000
vn -0.828159 0.560493 0.000000
vn -0.036717 0.037293 -0.998630
vn -0.036717 0.037293 -0.998630
vn -0.036717 0.037293 -0.998630
vn -0.036717 0.037293 -0.998630
vn -0.975304 0.220865 0.000000
vn -0.975304 0.220865 0.000000
vn -0.975304 0.220865 0.000000
vn -0.975304 0.220865 0.000000
vn 0.996058 -0.088705 0.000000
vn 0.996058 -0.088705 0.000000
vn 0.996058 -0.088705 0.000000
vn 0.996058 -0.088705 0.000000
vn 0.091201 -0.015966 0.995704
vn 0.091201 -0.015966 0.995704
vn 0.091201 -0.015966 0.995704
vn 0.091201 -0.015966 0.995704
vn 0.933830 -0.357718 0.000000
vn 0.933830 -0.357718 0.000000
vn 0.933830 -0.357718 0.000000
vn 0.933830 -0.357718 0.000000
vn -0.996058 -0.088705 0.000000
vn -0.996058 -0.088705 0.000000
vn -0.996058 -0.088705 0.000000
vn -0.996058 -0.088705 0.000000
vn -0.091201 -0.015966 0.995704
vn -0.091201 -0.015966 0.995704
vn -0.091201 -0.015966 0.995704
vn -0.091201 -0.015966 0.995704
vn -0.933830 -0.357718 0.000000
vn -0.933830 -0.357718 0.000000
vn -0.933830 -0.357718 0.000000
vn -0.933830 -0.357718 0.000000
vn 0.143367 0.072871 0.986983
vn 0.143367 0.072871 0.986983
vn 0.143367 0.072871 0.986983
vn 0.143367 0.072871 0.986983
vn -0.143367 0.072871 0.986983
vn -0.143367 0.072871 0.986983
vn -0.143367 0.072871 0.986983
vn -0.143367 0.072871 0.986983
vn -0.001689 -0.007116 -0.999973
vn -0.001689 -0.007116 -0.999973
vn -0.001689 -0.007116 -0.999973
vn -0.001689 -0.007116 -0.999973
vn 0.001689 -0.007116 -0.999973
vn 0.001689 -0.007116 -0.999973
vn 0.001689 -0.007116 -0.999973
vn 0.001689 -0.007116 -0.999973
s off
g manesilla1:minutehand_clocktexture
usemtl manesilla1:lambert3SG
f 1/1/1 14/2/2 9/3/3 2/4/4
f 1/5/5 15/6/6 18/7/7 14/8/8
f 2/9/9 10/10/10 15/6/11 1/5/12
f 3/11/13 9/12/14 14/8/15 4/13/16
f 4/14/17 14/8/18 18/7/19 16/15/20
f 4/16/21 16/15/22 11/17/23 3/11/24
f 5/18/25 15/6/26 10/10/27 6/19/28
f 6/20/29 10/21/30 13/22/31 12/23/32
f 6/24/33 12/25/34 17/26/35 5/18/36
f 7/27/37 11/17/38 16/15/39 8/28/40
f 7/29/41 12/23/42 13/22/43 11/30/44
f 8/31/45 17/26/46 12/25/47 7/27/48
f 9/3/49 13/22/50 10/21/51 2/32/52
f 11/30/53 13/22/54 9/3/55 3/33/56
f 16/15/57 18/7/58 17/26/59 8/34/60
f 17/26/61 18/7/62 15/6/63 5/18/64
